<svg width="24" height="24" viewBox="0 0 24 24" fill="none" xmlns="http://www.w3.org/2000/svg">
	<path opacity="0.3"
		d="M17.0098 2.00977H6.99977C4.24386 2.00977 2.00977 4.24386 2.00977 6.99977V17.0098C2.00977 19.7657 4.24386 21.9998 6.99977 21.9998H17.0098C19.7657 21.9998 21.9998 19.7657 21.9998 17.0098V6.99977C21.9998 4.24386 19.7657 2.00977 17.0098 2.00977Z"
		fill="black" />
	<path
		d="M11.4992 7.66977C10.1007 6.86174 8.56488 6.31929 6.96916 6.06977C6.80397 6.0406 6.6344 6.04792 6.47234 6.09121C6.31028 6.13451 6.15965 6.21273 6.03102 6.3204C5.90239 6.42807 5.79887 6.56257 5.72772 6.71448C5.65657 6.86639 5.61952 7.03203 5.61916 7.19977V15.1198C5.61756 15.3971 5.71895 15.6652 5.90369 15.8722C6.08843 16.0791 6.34338 16.2101 6.61916 16.2398C8.32363 16.5501 9.97412 17.1059 11.5192 17.8898L11.4992 7.66977Z"
		fill="black" />
	<path
		d="M17.0002 5.99956C15.4123 6.27742 13.8857 6.83256 12.4902 7.63956V17.8996C14.0368 17.1004 15.7011 16.5535 17.4202 16.2796C17.6832 16.2303 17.9205 16.0901 18.0905 15.8835C18.2605 15.6769 18.3525 15.4171 18.3502 15.1496V7.14956C18.3511 6.98067 18.315 6.81364 18.2446 6.66014C18.1741 6.50663 18.071 6.37036 17.9425 6.26084C17.8139 6.15133 17.663 6.0712 17.5002 6.02607C17.3375 5.98094 17.1668 5.97189 17.0002 5.99956Z"
		fill="black" />
</svg>