<svg width="20" height="20" viewBox="0 0 20 20" fill="none" xmlns="http://www.w3.org/2000/svg">
	<path opacity="0.3"
		d="M9.99999 18.3346C14.6024 18.3346 18.3333 14.6037 18.3333 10.0013C18.3333 5.39893 14.6024 1.66797 9.99999 1.66797C5.39762 1.66797 1.66666 5.39893 1.66666 10.0013C1.66666 14.6037 5.39762 18.3346 9.99999 18.3346Z"
		fill="#7F8194" />
	<path
		d="M9.99998 11.6185C11.7489 11.6185 13.1666 10.2007 13.1666 8.45182C13.1666 6.70292 11.7489 5.28516 9.99998 5.28516C8.25108 5.28516 6.83331 6.70292 6.83331 8.45182C6.83331 10.2007 8.25108 11.6185 9.99998 11.6185Z"
		fill="#7F8194" />
	<path
		d="M9.99998 18.3353C11.988 18.3375 13.9106 17.6247 15.4166 16.3269C15.0262 15.2013 14.2947 14.2253 13.324 13.5346C12.3532 12.8438 11.1914 12.4727 9.99998 12.4727C8.80856 12.4727 7.64673 12.8438 6.67598 13.5346C5.70524 14.2253 4.97379 15.2013 4.58331 16.3269C6.08936 17.6247 8.01192 18.3375 9.99998 18.3353Z"
		fill="#7F8194" />
</svg>