<svg width="12" height="8" viewBox="0 0 12 8" fill="none" xmlns="http://www.w3.org/2000/svg">
	<path
		d="M5.90836 7.36655C5.79868 7.36718 5.68996 7.34616 5.58843 7.30469C5.4869 7.26322 5.39456 7.20211 5.31669 7.12488L0.316689 2.12488C0.238582 2.04741 0.176587 1.95524 0.13428 1.85369C0.0919725 1.75214 0.0701904 1.64322 0.0701904 1.53321C0.0701904 1.4232 0.0919725 1.31428 0.13428 1.21273C0.176587 1.11118 0.238582 1.01901 0.316689 0.941546C0.472824 0.786337 0.684035 0.699219 0.904189 0.699219C1.12434 0.699219 1.33555 0.786337 1.49169 0.941546L5.90836 5.35821L10.3167 0.941546C10.4728 0.786337 10.684 0.699219 10.9042 0.699219C11.1243 0.699219 11.3356 0.786337 11.4917 0.941546C11.5698 1.01901 11.6318 1.11118 11.6741 1.21273C11.7164 1.31428 11.7382 1.4232 11.7382 1.53321C11.7382 1.64322 11.7164 1.75214 11.6741 1.85369C11.6318 1.95524 11.5698 2.04741 11.4917 2.12488L6.49169 7.12488C6.33647 7.27883 6.12697 7.36563 5.90836 7.36655Z"
		fill="#A1A5B7" />
</svg>