<svg width="20" height="20" viewBox="0 0 20 20" fill="none" xmlns="http://www.w3.org/2000/svg">
<path opacity="0.3" d="M16.6667 13.0469H3.33332C2.8913 13.0469 2.46737 12.8713 2.15481 12.5587C1.84225 12.2462 1.66666 11.8222 1.66666 11.3802V7.64688C1.66666 7.08992 1.88791 6.55578 2.28173 6.16195C2.67556 5.76812 3.2097 5.54688 3.76666 5.54688H16.2667C16.8178 5.55562 17.3434 5.78073 17.7301 6.17361C18.1167 6.56649 18.3334 7.09565 18.3333 7.64688V11.3802C18.3333 11.8222 18.1577 12.2462 17.8452 12.5587C17.5326 12.8713 17.1087 13.0469 16.6667 13.0469Z" fill="#7F8194"/>
<path d="M16.6667 13.0492H3.33333C3.04062 13.0487 2.7532 12.9711 2.5 12.8242V15.5492C2.5 15.9912 2.67559 16.4152 2.98816 16.7277C3.30072 17.0403 3.72464 17.2159 4.16667 17.2159H15.8333C16.2754 17.2159 16.6993 17.0403 17.0118 16.7277C17.3244 16.4152 17.5 15.9912 17.5 15.5492V12.8242C17.2468 12.9711 16.9594 13.0487 16.6667 13.0492Z" fill="#7F8194"/>
<path d="M11.4583 12.0312H9.09998C8.93422 12.0312 8.77524 11.9654 8.65803 11.8482C8.54082 11.731 8.47498 11.572 8.47498 11.4062C8.47498 11.2405 8.54082 11.0815 8.65803 10.9643C8.77524 10.8471 8.93422 10.7812 9.09998 10.7812H11.4583C11.6241 10.7812 11.783 10.8471 11.9002 10.9643C12.0175 11.0815 12.0833 11.2405 12.0833 11.4062C12.0833 11.572 12.0175 11.731 11.9002 11.8482C11.783 11.9654 11.6241 12.0312 11.4583 12.0312Z" fill="#7F8194"/>
<path d="M12.75 6.17344C12.5842 6.17344 12.4252 6.10759 12.308 5.99038C12.1908 5.87317 12.125 5.7142 12.125 5.54844V4.99844C12.125 4.77742 12.0372 4.56546 11.8809 4.40918C11.7246 4.2529 11.5127 4.1651 11.2916 4.1651H9.29165C9.07063 4.1651 8.85867 4.2529 8.70239 4.40918C8.54611 4.56546 8.45831 4.77742 8.45831 4.99844V5.52344C8.45831 5.6892 8.39247 5.84817 8.27526 5.96538C8.15804 6.08259 7.99907 6.14844 7.83331 6.14844C7.66755 6.14844 7.50858 6.08259 7.39137 5.96538C7.27416 5.84817 7.20831 5.6892 7.20831 5.52344V4.99844C7.20831 4.44148 7.42956 3.90734 7.82339 3.51351C8.21722 3.11969 8.75136 2.89844 9.30831 2.89844H11.2833C11.8388 2.90064 12.3708 3.12286 12.7629 3.51645C13.1549 3.91004 13.375 4.44292 13.375 4.99844V5.52344C13.3783 5.60759 13.3647 5.69156 13.3348 5.7703C13.3049 5.84904 13.2594 5.92092 13.201 5.98163C13.1426 6.04234 13.0726 6.09063 12.9951 6.12359C12.9176 6.15655 12.8342 6.1735 12.75 6.17344Z" fill="#7F8194"/>
</svg>
