<svg width="20" height="20" viewBox="0 0 20 20" fill="none" xmlns="http://www.w3.org/2000/svg">
	<path
		d="M5.63345 9.90848C5.63282 9.79881 5.65384 9.69009 5.69531 9.58856C5.73678 9.48702 5.79789 9.39468 5.87512 9.31681L10.8751 4.31681C10.9526 4.2387 11.0448 4.17671 11.1463 4.1344C11.2479 4.09209 11.3568 4.07031 11.4668 4.07031C11.5768 4.07031 11.6857 4.09209 11.7873 4.1344C11.8888 4.17671 11.981 4.2387 12.0585 4.31681C12.2137 4.47295 12.3008 4.68416 12.3008 4.90431C12.3008 5.12447 12.2137 5.33568 12.0585 5.49181L7.64179 9.90848L12.0585 14.3168C12.2137 14.4729 12.3008 14.6842 12.3008 14.9043C12.3008 15.1245 12.2137 15.3357 12.0585 15.4918C11.981 15.5699 11.8888 15.6319 11.7873 15.6742C11.6857 15.7165 11.5768 15.7383 11.4668 15.7383C11.3568 15.7383 11.2479 15.7165 11.1463 15.6742C11.0448 15.6319 10.9526 15.5699 10.8751 15.4918L5.87512 10.4918C5.72117 10.3366 5.63437 10.1271 5.63345 9.90848Z"
		fill="#181C32" />
</svg>