<svg width="10" height="10" viewBox="0 0 10 10" fill="none" xmlns="http://www.w3.org/2000/svg">
<path fill-rule="evenodd" clip-rule="evenodd" d="M6.17498 5L9.75001 1.42502C9.90834 1.27502 10 1.06667 10 0.833333C10 0.375 9.625 0 9.16667 0C8.93333 0 8.72498 0.0916483 8.57498 0.241648L5 3.82502L1.42502 0.241648C1.27502 0.0916483 1.06667 0 0.833333 0C0.375 0 0 0.375 0 0.833333C0 1.06667 0.0916483 1.27502 0.241648 1.42502L3.82502 5L0.24999 8.57498C0.0916565 8.72498 0 8.93333 0 9.16667C0 9.625 0.375 10 0.833333 10C1.06667 10 1.27502 9.90835 1.42502 9.75835L5 6.17498L8.57498 9.75001C8.72498 9.90834 8.93333 10 9.16667 10C9.625 10 10 9.625 10 9.16667C10 8.93333 9.90835 8.72498 9.75835 8.57498L6.17498 5Z" fill="#8993A4"/>
</svg>
