<svg width="16" height="16" viewBox="0 0 16 16" fill="none" xmlns="http://www.w3.org/2000/svg">
	<path
		d="M11.3335 11.2867C11.2086 11.4109 11.0396 11.4806 10.8635 11.4806C10.6873 11.4806 10.5184 11.4109 10.3935 11.2867L4.70013 5.66006C4.63764 5.59808 4.58805 5.52435 4.5542 5.44311C4.52036 5.36187 4.50293 5.27473 4.50293 5.18673C4.50293 5.09872 4.52036 5.01158 4.5542 4.93034C4.58805 4.8491 4.63764 4.77537 4.70013 4.71339C4.82504 4.58923 4.994 4.51953 5.17013 4.51953C5.34625 4.51953 5.51522 4.58923 5.64013 4.71339L11.3335 10.3401C11.3959 10.402 11.4455 10.4758 11.4794 10.557C11.5132 10.6382 11.5307 10.7254 11.5307 10.8134C11.5307 10.9014 11.5132 10.9885 11.4794 11.0698C11.4455 11.151 11.3959 11.2248 11.3335 11.2867Z"
		fill="#7E8299" />
	<path opacity="0.3"
		d="M5.63995 11.3351C5.51264 11.4641 5.33928 11.5374 5.15799 11.5386C4.97671 11.5399 4.80235 11.469 4.67328 11.3417C4.54421 11.2144 4.47099 11.0411 4.46974 10.8598C4.46849 10.6785 4.53931 10.5041 4.66661 10.3751L10.3599 4.6684C10.4872 4.53932 10.6606 4.46611 10.8419 4.46486C11.0232 4.46361 11.1975 4.53443 11.3266 4.66173C11.4557 4.78903 11.5289 4.9624 11.5301 5.14368C11.5314 5.32497 11.4606 5.49932 11.3333 5.6284L5.63995 11.3351Z"
		fill="#7E8299" />
</svg>