<svg width="24" height="24" viewBox="0 0 24 24" fill="none" xmlns="http://www.w3.org/2000/svg">
	<path
		d="M12.9302 12.8398L14.1402 11.4598C14.2721 11.3268 14.3461 11.1471 14.3461 10.9598C14.3461 10.7725 14.2721 10.5928 14.1402 10.4598C14.0811 10.3952 14.0093 10.3437 13.9293 10.3084C13.8492 10.2731 13.7627 10.2549 13.6752 10.2549C13.5877 10.2549 13.5012 10.2731 13.4211 10.3084C13.341 10.3437 13.2692 10.3952 13.2102 10.4598L12.0002 11.8798L10.7202 10.5798C10.6611 10.5152 10.5893 10.4637 10.5093 10.4284C10.4292 10.3931 10.3427 10.3749 10.2552 10.3749C10.1677 10.3749 10.0812 10.3931 10.0011 10.4284C9.92104 10.4637 9.8492 10.5152 9.79018 10.5798C9.66509 10.7163 9.5957 10.8947 9.5957 11.0798C9.5957 11.2649 9.66509 11.4433 9.79018 11.5798L11.0802 12.8898L9.86018 14.2698C9.73291 14.4052 9.66206 14.584 9.66206 14.7698C9.66206 14.9556 9.73291 15.1344 9.86018 15.2698C9.9192 15.3344 9.99104 15.386 10.0711 15.4213C10.1512 15.4565 10.2377 15.4748 10.3252 15.4748C10.4127 15.4748 10.4992 15.4565 10.5793 15.4213C10.6593 15.386 10.7311 15.3344 10.7902 15.2698L12.0002 13.8598L13.2802 15.1598C13.3375 15.2221 13.4071 15.272 13.4845 15.3064C13.5619 15.3408 13.6455 15.359 13.7302 15.3598C13.8209 15.3576 13.9102 15.3369 13.9928 15.2991C14.0753 15.2613 14.1492 15.2071 14.2102 15.1398C14.3353 15.0034 14.4046 14.8249 14.4046 14.6398C14.4046 14.4547 14.3353 14.2763 14.2102 14.1398L12.9302 12.8398Z"
		fill="black" />
	<path opacity="0.3"
		d="M16.8204 3.77002V4.00002C16.8204 4.53045 16.6097 5.03916 16.2346 5.41423C15.8595 5.78931 15.3508 6.00002 14.8204 6.00002H9.16039C8.62996 6.00002 8.12125 5.78931 7.74618 5.41423C7.37111 5.03916 7.16039 4.53045 7.16039 4.00002V3.77002C5.93238 4.02357 4.82965 4.69356 4.0388 5.66663C3.24796 6.6397 2.81754 7.8561 2.82039 9.11002V16.51C2.81644 17.2287 2.95443 17.9411 3.22642 18.6064C3.49842 19.2716 3.89908 19.8766 4.40542 20.3867C4.91176 20.8967 5.51382 21.3018 6.17707 21.5787C6.84031 21.8555 7.55169 21.9987 8.2704 22H15.7304C17.1767 21.9974 18.5629 21.421 19.5847 20.3973C20.6065 19.3736 21.1804 17.9864 21.1804 16.54V9.12002C21.1827 7.86208 20.7498 6.64207 19.9551 5.66694C19.1605 4.69181 18.0529 4.0216 16.8204 3.77002Z"
		fill="black" />
	<path
		d="M15.8203 4.00978V2.99978C15.8203 2.46407 15.386 2.02979 14.8503 2.02979L9.16031 2.02979C8.6246 2.02979 8.19031 2.46407 8.19031 2.99978V4.00978C8.19031 4.5455 8.6246 4.97978 9.16031 4.97978H14.8503C15.386 4.97978 15.8203 4.5455 15.8203 4.00978Z"
		fill="black" />
</svg>