<svg width="18" height="18" viewBox="0 0 18 18" fill="none" xmlns="http://www.w3.org/2000/svg">
<path opacity="0.3" d="M8.99935 17.3337C13.6017 17.3337 17.3327 13.6027 17.3327 9.00033C17.3327 4.39795 13.6017 0.666992 8.99935 0.666992C4.39698 0.666992 0.666016 4.39795 0.666016 9.00033C0.666016 13.6027 4.39698 17.3337 8.99935 17.3337Z" fill="white"/>
<path opacity="0.3" d="M10.7739 12.0924L15.3989 7.46738C15.5231 7.31884 15.5872 7.12921 15.5785 6.93579C15.5699 6.74238 15.4892 6.5592 15.3523 6.42231C15.2154 6.28541 15.0322 6.20471 14.8388 6.19608C14.6454 6.18746 14.4558 6.25154 14.3072 6.37571L10.2322 10.459L7.69058 7.91738C7.54505 7.78322 7.35326 7.71056 7.15537 7.71458C6.95748 7.71861 6.76881 7.79902 6.62885 7.93898C6.48889 8.07894 6.40848 8.26761 6.40446 8.4655C6.40043 8.66339 6.4731 8.85517 6.60725 9.00071L9.68225 12.084C9.8317 12.2241 10.0275 12.3042 10.2322 12.309C10.4343 12.311 10.629 12.2332 10.7739 12.0924Z" fill="white"/>
<path d="M6.7752 12.0002L11.3919 7.37515C11.526 7.22962 11.5987 7.03783 11.5947 6.83994C11.5906 6.64205 11.5102 6.45338 11.3703 6.31342C11.2303 6.17346 11.0416 6.09305 10.8438 6.08903C10.6459 6.085 10.4541 6.15767 10.3085 6.29182L6.2252 10.3668L3.72521 7.82515C3.65353 7.75128 3.568 7.69226 3.47351 7.65144C3.37901 7.61063 3.27741 7.58882 3.17449 7.58728C2.96664 7.58415 2.76606 7.66372 2.61687 7.80849C2.543 7.88017 2.48398 7.96569 2.44316 8.06018C2.40235 8.15468 2.38054 8.25628 2.37899 8.3592C2.37587 8.56705 2.45544 8.76763 2.60021 8.91682L5.66687 12.0002C5.81203 12.1442 6.00823 12.225 6.2127 12.225C6.41718 12.225 6.61338 12.1442 6.75854 12.0002H6.7752Z" fill="white"/>
</svg>
