<svg width="16" height="16" viewBox="0 0 16 16" fill="none" xmlns="http://www.w3.org/2000/svg">
	<path opacity="0.3"
		d="M14.2667 5.56559L12.8334 7.00559L8.99337 3.16559L10.4334 1.73225C10.5577 1.60321 10.7069 1.50057 10.8718 1.43046C11.0368 1.36035 11.2141 1.32422 11.3934 1.32422C11.5726 1.32422 11.75 1.36035 11.9149 1.43046C12.0799 1.50057 12.229 1.60321 12.3534 1.73225L14.2667 3.64559C14.3957 3.76996 14.4984 3.91908 14.5685 4.08403C14.6386 4.24897 14.6747 4.42636 14.6747 4.60559C14.6747 4.78481 14.6386 4.9622 14.5685 5.12714C14.4984 5.29209 14.3957 5.44121 14.2667 5.56559ZM2.46003 14.6189L6.59337 13.2456L2.75337 9.40559L1.38003 13.5389C1.3297 13.6894 1.32229 13.8509 1.35865 14.0053C1.39501 14.1597 1.4737 14.3009 1.58587 14.4131C1.69805 14.5253 1.83927 14.6039 1.99368 14.6403C2.1481 14.6767 2.30959 14.6693 2.46003 14.6189Z"
		fill="#7E8299" />
	<path
		d="M3.71337 14.1974L2.46003 14.6174C2.30959 14.6677 2.1481 14.6751 1.99368 14.6388C1.83927 14.6024 1.69805 14.5237 1.58587 14.4116C1.4737 14.2994 1.39501 14.1582 1.35865 14.0037C1.32229 13.8493 1.3297 13.6878 1.38003 13.5374L1.80003 12.2841L3.71337 14.1974ZM2.75337 9.40406L6.59337 13.2441L12.8334 7.00406L8.99337 3.16406L2.75337 9.40406Z"
		fill="#7E8299" />
</svg>