<svg width="20" height="20" viewBox="0 0 20 20" fill="none" xmlns="http://www.w3.org/2000/svg">
	<g opacity="0.3">
		<path
			d="M14.016 18.3332H2.49935C2.27834 18.3332 2.06637 18.2454 1.91009 18.0891C1.75381 17.9328 1.66602 17.7209 1.66602 17.4998V5.98317C1.66602 4.83832 2.12081 3.74036 2.93034 2.93083C3.73987 2.12129 4.83783 1.6665 5.98268 1.6665H14.016C14.5829 1.6665 15.1442 1.77816 15.6679 1.99509C16.1917 2.21202 16.6675 2.52999 17.0684 2.93083C17.4692 3.33167 17.7872 3.80753 18.0041 4.33125C18.221 4.85498 18.3327 5.4163 18.3327 5.98317V14.0165C18.3327 14.5834 18.221 15.1447 18.0041 15.6684C17.7872 16.1921 17.4692 16.668 17.0684 17.0688C16.6675 17.4697 16.1917 17.7877 15.6679 18.0046C15.1442 18.2215 14.5829 18.3332 14.016 18.3332Z"
			fill="#3E97FF" />
	</g>
	<path
		d="M9.35789 6.44998L9.97456 5.61664C10.0964 5.44779 10.251 5.30522 10.4292 5.19744C10.6073 5.08966 10.8054 5.01888 11.0115 4.98933C11.2176 4.95977 11.4275 4.97205 11.6288 5.02542C11.8301 5.07879 12.0185 5.17217 12.1829 5.29998L13.5746 6.37498C13.9031 6.64187 14.1178 7.02378 14.1751 7.4432C14.2324 7.86262 14.1279 8.28811 13.8829 8.63331L13.2662 9.46664C12.8122 9.55853 12.3435 9.55021 11.893 9.44226C11.4425 9.33431 11.021 9.12934 10.6579 8.84164C10.2851 8.55691 9.97664 8.1967 9.75262 7.78456C9.52861 7.37243 9.3941 6.91766 9.35789 6.44998ZM9.96622 9.78331C9.27257 9.244 8.74656 8.51857 8.44956 7.69164L6.11622 10.8333C5.93543 11.0896 5.83663 11.3947 5.83289 11.7083V13.8083C5.82588 13.9923 5.8619 14.1754 5.93808 14.343C6.01425 14.5106 6.1285 14.6581 6.27171 14.7738C6.41493 14.8895 6.58317 14.9702 6.76305 15.0095C6.94293 15.0487 7.12949 15.0455 7.30789 15L9.27456 14.4C9.57496 14.3111 9.83824 14.1268 10.0246 13.875L12.3496 10.725C11.491 10.6414 10.675 10.3115 9.99956 9.77498L9.96622 9.78331Z"
		fill="#3E97FF" />
</svg>