<svg width="22" height="22" viewBox="0 0 22 22" fill="none" xmlns="http://www.w3.org/2000/svg">
	<path opacity="0.3"
		d="M14.1624 5.50084C14.1195 4.53794 13.6992 3.63065 12.9924 2.97531C12.2856 2.31998 11.3492 1.9693 10.3858 1.99918H6.4166C5.44698 1.95941 4.50114 2.30565 3.78635 2.96202C3.07156 3.61839 2.64613 4.53135 2.60327 5.50084V16.5008C2.64377 17.472 3.06818 18.3873 3.78323 19.0456C4.49828 19.7039 5.44546 20.0514 6.4166 20.0117H10.4224C11.3811 20.0317 12.3095 19.6754 13.0086 19.0191C13.7077 18.3629 14.1219 17.4589 14.1624 16.5008V5.50084Z"
		fill="#7E8299" />
	<path
		d="M7.96582 10.3128H17.05L15.5833 8.80942C15.4546 8.68051 15.3823 8.50577 15.3823 8.32358C15.3823 8.1414 15.4546 7.96666 15.5833 7.83775C15.6465 7.77289 15.7221 7.72134 15.8055 7.68614C15.8889 7.65095 15.9786 7.63281 16.0692 7.63281C16.1597 7.63281 16.2494 7.65095 16.3328 7.68614C16.4162 7.72134 16.4918 7.77289 16.555 7.83775L19.2408 10.5144C19.3696 10.6433 19.4419 10.8181 19.4419 11.0003C19.4419 11.1824 19.3696 11.3572 19.2408 11.4861L16.5 14.1628C16.4368 14.2274 16.3612 14.2787 16.2777 14.3133C16.1942 14.348 16.1046 14.3654 16.0142 14.3644C15.9238 14.3648 15.8343 14.3472 15.7509 14.3126C15.6675 14.278 15.5918 14.227 15.5283 14.1628C15.3996 14.0338 15.3273 13.8591 15.3273 13.6769C15.3273 13.4947 15.3996 13.32 15.5283 13.1911L17.0408 11.6878H7.96582C7.78348 11.6878 7.60862 11.6153 7.47968 11.4864C7.35075 11.3575 7.27832 11.1826 7.27832 11.0003C7.27832 10.8179 7.35075 10.643 7.47968 10.5141C7.60862 10.3852 7.78348 10.3128 7.96582 10.3128Z"
		fill="#7E8299" />
</svg>