<svg width="12" height="8" viewBox="0 0 12 8" fill="none" xmlns="http://www.w3.org/2000/svg">
<path d="M10.875 7.05795C10.7653 7.05859 10.6566 7.03757 10.5551 6.9961C10.4536 6.95462 10.3612 6.89352 10.2833 6.81629L5.90835 2.43295L1.52501 6.81629C1.36888 6.9715 1.15767 7.05861 0.937515 7.05861C0.71736 7.05861 0.50615 6.9715 0.350014 6.81629C0.271907 6.73882 0.209912 6.64665 0.167605 6.5451C0.125298 6.44355 0.103516 6.33463 0.103516 6.22462C0.103516 6.11461 0.125298 6.00569 0.167605 5.90414C0.209912 5.80259 0.271907 5.71042 0.350014 5.63295L5.35001 0.632952C5.50615 0.477743 5.71736 0.390625 5.93751 0.390625C6.15767 0.390625 6.36888 0.477743 6.52501 0.632952L11.525 5.63295C11.6031 5.71042 11.6651 5.80259 11.7074 5.90414C11.7497 6.00569 11.7715 6.11461 11.7715 6.22462C11.7715 6.33463 11.7497 6.44355 11.7074 6.5451C11.6651 6.64665 11.6031 6.73882 11.525 6.81629C11.4404 6.90087 11.3385 6.96624 11.2263 7.00794C11.1142 7.04964 10.9944 7.0667 10.875 7.05795Z" fill="#7E8299"/>
</svg>
