<svg width="14" height="14" viewBox="0 0 14 14" fill="none" xmlns="http://www.w3.org/2000/svg">
	<path opacity="0.3"
		d="M7.00065 13.6663C10.6825 13.6663 13.6673 10.6816 13.6673 6.99967C13.6673 3.31778 10.6825 0.333008 7.00065 0.333008C3.31875 0.333008 0.333984 3.31778 0.333984 6.99967C0.333984 10.6816 3.31875 13.6663 7.00065 13.6663Z"
		fill="#7E8299" />
	<path
		d="M7.00065 7.93316C7.17746 7.93316 7.34703 7.86293 7.47206 7.7379C7.59708 7.61288 7.66732 7.44331 7.66732 7.2665V4.15983C7.66732 3.98302 7.59708 3.81345 7.47206 3.68843C7.34703 3.5634 7.17746 3.49316 7.00065 3.49316C6.82384 3.49316 6.65427 3.5634 6.52925 3.68843C6.40422 3.81345 6.33398 3.98302 6.33398 4.15983V7.2665C6.33398 7.44331 6.40422 7.61288 6.52925 7.7379C6.65427 7.86293 6.82384 7.93316 7.00065 7.93316Z"
		fill="#7E8299" />
	<path
		d="M7.0013 10.5065C7.46154 10.5065 7.83464 10.1334 7.83464 9.67318C7.83464 9.21294 7.46154 8.83984 7.0013 8.83984C6.54106 8.83984 6.16797 9.21294 6.16797 9.67318C6.16797 10.1334 6.54106 10.5065 7.0013 10.5065Z"
		fill="#7E8299" />
</svg>