<svg width="24" height="24" viewBox="0 0 24 24" fill="none" xmlns="http://www.w3.org/2000/svg">
	<path
		d="M8.00001 16.3511C8.54677 16.3511 8.99001 15.9079 8.99001 15.3611C8.99001 14.8143 8.54677 14.3711 8.00001 14.3711C7.45325 14.3711 7.01001 14.8143 7.01001 15.3611C7.01001 15.9079 7.45325 16.3511 8.00001 16.3511Z"
		fill="black" />
	<path
		d="M12 16.3511C12.5468 16.3511 12.99 15.9079 12.99 15.3611C12.99 14.8143 12.5468 14.3711 12 14.3711C11.4532 14.3711 11.01 14.8143 11.01 15.3611C11.01 15.9079 11.4532 16.3511 12 16.3511Z"
		fill="black" />
	<path
		d="M16 16.3394C16.5468 16.3394 16.99 15.8961 16.99 15.3494C16.99 14.8026 16.5468 14.3594 16 14.3594C15.4532 14.3594 15.01 14.8026 15.01 15.3494C15.01 15.8961 15.4532 16.3394 16 16.3394Z"
		fill="black" />
	<path opacity="0.3"
		d="M18.09 9.44922H5.91C3.75057 9.44922 2 11.1998 2 13.3592V18.0992C2 20.2587 3.75057 22.0092 5.91 22.0092H18.09C20.2494 22.0092 22 20.2587 22 18.0992V13.3592C22 11.1998 20.2494 9.44922 18.09 9.44922Z"
		fill="black" />
	<path
		d="M5.90997 9.45H7.21997V7.45C7.21997 6.4077 7.63402 5.40809 8.37104 4.67107C9.10806 3.93405 10.1077 3.52 11.15 3.52H12.85C13.8923 3.52 14.8919 3.93405 15.6289 4.67107C16.3659 5.40809 16.78 6.4077 16.78 7.45V9.45H18.09H18.28V7.42C18.2747 5.98242 17.7006 4.60538 16.6831 3.58979C15.6657 2.5742 14.2876 2.00263 12.85 2H11.15C9.71238 2.00263 8.33429 2.5742 7.31682 3.58979C6.29936 4.60538 5.72525 5.98242 5.71997 7.42V9.47L5.90997 9.45Z"
		fill="black" />
</svg>