<svg width="24" height="24" viewBox="0 0 24 24" fill="none" xmlns="http://www.w3.org/2000/svg">
	<path
		d="M19.36 7.22922C20.818 7.22922 22 6.04725 22 4.58922C22 3.13119 20.818 1.94922 19.36 1.94922C17.9019 1.94922 16.72 3.13119 16.72 4.58922C16.72 6.04725 17.9019 7.22922 19.36 7.22922Z"
		fill="black" />
	<g opacity="0.3">
		<path
			d="M19.36 8.65801C18.2814 8.65537 17.2477 8.22572 16.485 7.46302C15.7223 6.70032 15.2926 5.66663 15.29 4.58801C15.2928 3.91618 15.4647 3.25587 15.79 2.66801H6.78999C6.17634 2.66538 5.56823 2.78397 5.00054 3.01698C4.43285 3.24998 3.91677 3.59282 3.48193 4.0258C3.04709 4.45879 2.70205 4.97339 2.46661 5.54008C2.23117 6.10676 2.10998 6.71437 2.10999 7.32801V14.438C2.10999 15.6739 2.60095 16.8592 3.47487 17.7331C4.34879 18.607 5.53408 19.098 6.76999 19.098H8.28999C8.50157 19.0987 8.70993 19.1499 8.89777 19.2473C9.0856 19.3447 9.24749 19.4855 9.36999 19.658L10.44 21.178C10.581 21.3802 10.7687 21.5453 10.9872 21.6593C11.2057 21.7733 11.4485 21.8329 11.695 21.8329C11.9415 21.8329 12.1843 21.7733 12.4028 21.6593C12.6213 21.5453 12.809 21.3802 12.95 21.178L14 19.658C14.1225 19.4855 14.2844 19.3447 14.4722 19.2473C14.66 19.1499 14.8684 19.0987 15.08 19.098H16.6C17.8359 19.098 19.0212 18.607 19.8951 17.7331C20.769 16.8592 21.26 15.6739 21.26 14.438V8.15801C20.6781 8.48004 20.025 8.65189 19.36 8.65801Z"
			fill="black" />
	</g>
	<path
		d="M7.85997 12.2477C8.38464 12.2477 8.80997 11.8223 8.80997 11.2977C8.80997 10.773 8.38464 10.3477 7.85997 10.3477C7.3353 10.3477 6.90997 10.773 6.90997 11.2977C6.90997 11.8223 7.3353 12.2477 7.85997 12.2477Z"
		fill="black" />
	<path
		d="M11.69 12.2477C12.2147 12.2477 12.64 11.8223 12.64 11.2977C12.64 10.773 12.2147 10.3477 11.69 10.3477C11.1653 10.3477 10.74 10.773 10.74 11.2977C10.74 11.8223 11.1653 12.2477 11.69 12.2477Z"
		fill="black" />
	<path
		d="M11.69 12.2477C12.2147 12.2477 12.64 11.8223 12.64 11.2977C12.64 10.773 12.2147 10.3477 11.69 10.3477C11.1653 10.3477 10.74 10.773 10.74 11.2977C10.74 11.8223 11.1653 12.2477 11.69 12.2477Z"
		fill="black" />
	<path
		d="M15.53 12.2477C16.0546 12.2477 16.48 11.8223 16.48 11.2977C16.48 10.773 16.0546 10.3477 15.53 10.3477C15.0053 10.3477 14.58 10.773 14.58 11.2977C14.58 11.8223 15.0053 12.2477 15.53 12.2477Z"
		fill="black" />
</svg>