<svg width="22" height="22" viewBox="0 0 22 22" fill="none" xmlns="http://www.w3.org/2000/svg">
	<g opacity="0.3">
		<path
			d="M17.4901 13.75C16.6681 12.5024 16.2402 11.0364 16.2617 9.54252V9.37752C16.2593 8.52778 16.0462 7.69191 15.6418 6.94461C15.2373 6.19732 14.6539 5.5619 13.9438 5.09517C13.2338 4.62844 12.4191 4.34495 11.5726 4.27003C10.7262 4.19511 9.87442 4.3311 9.09339 4.66585C8.17769 5.0431 7.39678 5.68731 6.85233 6.5146C6.30789 7.34189 6.02514 8.31394 6.04089 9.30419V9.35919C6.04817 10.9597 5.53682 12.5195 4.58339 13.805L3.97839 14.6667C3.73235 15.0013 3.60057 15.4063 3.60256 15.8217C3.60256 16.3371 3.8073 16.8314 4.17175 17.1958C4.5362 17.5603 5.03049 17.765 5.54589 17.765H16.5001C16.7553 17.765 17.008 17.7148 17.2437 17.6171C17.4795 17.5194 17.6938 17.3763 17.8742 17.1958C18.0547 17.0154 18.1978 16.8011 18.2955 16.5654C18.3931 16.3296 18.4434 16.0769 18.4434 15.8217V15.7667C18.4473 15.3751 18.3322 14.9915 18.1134 14.6667L17.4901 13.75Z"
			fill="#7E8299" />
	</g>
	<path
		d="M9.24927 18.625C9.31067 19.0504 9.52332 19.4395 9.84824 19.7209C10.1732 20.0023 10.5886 20.1571 11.0184 20.1571C11.4483 20.1571 11.8637 20.0023 12.1886 19.7209C12.5136 19.4395 12.7262 19.0504 12.7876 18.625H9.24927Z"
		fill="#7E8299" />
	<path
		d="M11.6967 4.2887V2.51953C11.6967 2.33719 11.6243 2.16233 11.4953 2.0334C11.3664 1.90446 11.1915 1.83203 11.0092 1.83203C10.8269 1.83203 10.652 1.90446 10.5231 2.0334C10.3941 2.16233 10.3217 2.33719 10.3217 2.51953V4.2612C10.3163 4.28224 10.3163 4.30432 10.3217 4.32536C10.7768 4.25632 11.2386 4.244 11.6967 4.2887Z"
		fill="#7E8299" />
</svg>