<svg width="20" height="20" viewBox="0 0 20 20" fill="none" xmlns="http://www.w3.org/2000/svg">
	<path opacity="0.3"
		d="M5.30834 15.5408L16.4 7.34917V6.24917C16.3987 5.70526 16.2408 5.17324 15.9453 4.71663C15.6497 4.26002 15.229 3.89813 14.7333 3.67417L10.9167 1.92417C10.5465 1.75534 10.1444 1.66797 9.73751 1.66797C9.33064 1.66797 8.92852 1.75534 8.55834 1.92417L4.73334 3.67417C4.23705 3.89728 3.81576 4.25897 3.52009 4.71577C3.22443 5.17257 3.06698 5.70504 3.06667 6.24917V12.3742C3.06497 12.7934 3.15686 13.2076 3.33562 13.5868C3.51439 13.966 3.77553 14.3004 4.10001 14.5658L5.30834 15.5408Z"
		fill="#7F8194" />
	<path
		d="M6.26666 16.3154L7.93333 17.6904C8.43779 18.1062 9.07121 18.3337 9.725 18.3337C10.3788 18.3337 11.0122 18.1062 11.5167 17.6904L15.3417 14.5654C15.6672 14.3004 15.9296 13.9662 16.1098 13.5871C16.29 13.208 16.3834 12.7935 16.3833 12.3737V8.83203L6.26666 16.3154Z"
		fill="#7F8194" />
</svg>