<svg width="18" height="18" viewBox="0 0 18 18" fill="none" xmlns="http://www.w3.org/2000/svg">
	<path opacity="0.3"
		d="M8.16667 9.83463H4.83333C4.61232 9.83463 4.40036 9.74684 4.24408 9.59056C4.0878 9.43428 4 9.22232 4 9.0013C4 8.78029 4.0878 8.56833 4.24408 8.41205C4.40036 8.25577 4.61232 8.16797 4.83333 8.16797H8.16667V9.83463ZM13.1667 8.16797H9.83333V9.83463H13.1667C13.3877 9.83463 13.5996 9.74684 13.7559 9.59056C13.9122 9.43428 14 9.22232 14 9.0013C14 8.78029 13.9122 8.56833 13.7559 8.41205C13.5996 8.25577 13.3877 8.16797 13.1667 8.16797Z"
		fill="white" />
	<path opacity="0.3"
		d="M12.4916 0.667969H5.50829C2.83431 0.667969 0.666626 2.83566 0.666626 5.50964V12.493C0.666626 15.1669 2.83431 17.3346 5.50829 17.3346H12.4916C15.1656 17.3346 17.3333 15.1669 17.3333 12.493V5.50964C17.3333 2.83566 15.1656 0.667969 12.4916 0.667969Z"
		fill="white" />
	<path
		d="M13.1667 8.16667H9.83333V4.83333C9.83333 4.61232 9.74554 4.40036 9.58926 4.24408C9.43297 4.0878 9.22101 4 9 4C8.77899 4 8.56702 4.0878 8.41074 4.24408C8.25446 4.40036 8.16667 4.61232 8.16667 4.83333V8.16667H4.83333C4.61232 8.16667 4.40036 8.25446 4.24408 8.41074C4.0878 8.56702 4 8.77899 4 9C4 9.22101 4.0878 9.43297 4.24408 9.58926C4.40036 9.74554 4.61232 9.83333 4.83333 9.83333H8.16667V13.1667C8.16667 13.3877 8.25446 13.5996 8.41074 13.7559C8.56702 13.9122 8.77899 14 9 14C9.22101 14 9.43297 13.9122 9.58926 13.7559C9.74554 13.5996 9.83333 13.3877 9.83333 13.1667V9.83333H13.1667C13.3877 9.83333 13.5996 9.74554 13.7559 9.58926C13.9122 9.43297 14 9.22101 14 9C14 8.77899 13.9122 8.56702 13.7559 8.41074C13.5996 8.25446 13.3877 8.16667 13.1667 8.16667Z"
		fill="white" />
</svg>