<svg width="24" height="24" viewBox="0 0 24 24" fill="none" xmlns="http://www.w3.org/2000/svg">
	<path opacity="0.3"
		d="M12 22C17.5228 22 22 17.5228 22 12C22 6.47715 17.5228 2 12 2C6.47715 2 2 6.47715 2 12C2 17.5228 6.47715 22 12 22Z"
		fill="#7E8299" />
	<path
		d="M12.0001 15.0009C11.8012 15.0009 11.6104 14.9219 11.4698 14.7812C11.3291 14.6406 11.2501 14.4498 11.2501 14.2509V13.4309C11.2408 12.9296 11.3728 12.4359 11.631 12.0061C11.8892 11.5764 12.2632 11.228 12.7101 11.0009C12.9721 10.8741 13.1954 10.6795 13.3567 10.4373C13.5181 10.195 13.6116 9.91403 13.6276 9.62343C13.6437 9.33282 13.5816 9.04323 13.4479 8.78472C13.3141 8.52621 13.1136 8.30823 12.8672 8.15341C12.6207 7.99858 12.3373 7.91257 12.0464 7.90431C11.7555 7.89604 11.4676 7.96583 11.2128 8.10641C10.9579 8.24699 10.7454 8.45324 10.5972 8.70374C10.449 8.95424 10.3706 9.23984 10.3701 9.53089C10.3701 9.7298 10.2911 9.92057 10.1504 10.0612C10.0098 10.2019 9.81903 10.2809 9.62012 10.2809C9.4212 10.2809 9.23044 10.2019 9.08979 10.0612C8.94914 9.92057 8.87012 9.7298 8.87012 9.53089C8.87179 9.07294 8.97361 8.62089 9.16845 8.20645C9.36328 7.792 9.64641 7.42519 9.99799 7.13174C10.3496 6.83828 10.7611 6.62528 11.2037 6.50766C11.6463 6.39005 12.1092 6.37067 12.5601 6.45089C13.1896 6.56931 13.768 6.87683 14.2183 7.33242C14.6685 7.78802 14.9692 8.37004 15.0801 9.00089C15.2063 9.6751 15.106 10.3721 14.7949 10.9834C14.4839 11.5947 13.9794 12.086 13.3601 12.3809C13.1706 12.4841 13.0133 12.6378 12.9056 12.8248C12.7979 13.0119 12.7441 13.2251 12.7501 13.4409V14.2609C12.7475 14.4581 12.6673 14.6463 12.5269 14.7848C12.3866 14.9233 12.1973 15.0009 12.0001 15.0009Z"
		fill="#7E8299" />
	<path
		d="M12 17.5898C12.4142 17.5898 12.75 17.2541 12.75 16.8398C12.75 16.4256 12.4142 16.0898 12 16.0898C11.5858 16.0898 11.25 16.4256 11.25 16.8398C11.25 17.2541 11.5858 17.5898 12 17.5898Z"
		fill="#7E8299" />
</svg>