<svg width="14" height="18" viewBox="0 0 14 18" fill="none" xmlns="http://www.w3.org/2000/svg">
	<path opacity="0.3"
		d="M11.6833 17.3348H2.31665C2.05738 17.3381 1.80003 17.2899 1.55955 17.193C1.31906 17.096 1.10021 16.9523 0.915706 16.7701C0.731202 16.5879 0.584712 16.3709 0.484737 16.1317C0.384762 15.8925 0.333292 15.6357 0.333313 15.3765V2.62646C0.333292 2.36717 0.384762 2.11046 0.484737 1.87122C0.584712 1.63198 0.731202 1.41498 0.915706 1.2328C1.10021 1.05062 1.31906 0.906893 1.55955 0.80996C1.80003 0.713028 2.05738 0.664818 2.31665 0.668128H8.05831C8.20144 0.667644 8.34318 0.696196 8.47495 0.752058C8.60673 0.807919 8.72581 0.88993 8.82498 0.993128L13.325 5.55146C13.526 5.75284 13.6398 6.02524 13.6416 6.30979V15.3765C13.6416 15.8958 13.4353 16.394 13.0681 16.7612C12.7008 17.1285 12.2027 17.3348 11.6833 17.3348Z"
		fill="#A1A5B7" />
	<path
		d="M13.325 5.5513L8.82497 0.992969C8.67507 0.827592 8.47673 0.713838 8.2583 0.667969V3.5013C8.2583 3.84125 8.32539 4.17786 8.45574 4.49183C8.58608 4.8058 8.77712 5.09095 9.01789 5.33095C9.25865 5.57094 9.54442 5.76105 9.85881 5.89039C10.1732 6.01972 10.51 6.08573 10.85 6.08464H13.6166C13.5737 5.88216 13.4723 5.69673 13.325 5.5513Z"
		fill="#A1A5B7" />
	<path
		d="M10.5417 13.3681L8.80832 11.7014C9.20017 11.1576 9.4128 10.5051 9.41665 9.83476C9.42481 9.09194 9.18459 8.36767 8.73414 7.77695C8.28368 7.18623 7.64881 6.76291 6.93031 6.5742C6.21181 6.38548 5.45086 6.44218 4.76826 6.7353C4.08566 7.02843 3.52054 7.54116 3.16262 8.19212C2.80469 8.84308 2.67447 9.59495 2.79262 10.3284C2.91078 11.0618 3.27054 11.7347 3.8148 12.2403C4.35906 12.7459 5.05662 13.0552 5.79673 13.1192C6.53685 13.1831 7.27711 12.9979 7.89999 12.5931L9.68332 14.2598C9.7997 14.3719 9.95501 14.4347 10.1167 14.4348C10.2016 14.4357 10.2858 14.4183 10.3635 14.3838C10.4411 14.3493 10.5104 14.2985 10.5667 14.2348C10.6754 14.1151 10.7335 13.958 10.7289 13.7964C10.7242 13.6348 10.6571 13.4813 10.5417 13.3681ZM4.09999 9.83476C4.10004 9.43404 4.2185 9.04226 4.44049 8.70864C4.66247 8.37502 4.97809 8.11444 5.34769 7.95961C5.7173 7.80478 6.12441 7.76261 6.5179 7.8384C6.9114 7.9142 7.27372 8.10457 7.55937 8.38561C7.84502 8.66665 8.04125 9.02583 8.12344 9.41804C8.20562 9.81025 8.17007 10.218 8.02128 10.5901C7.87248 10.9621 7.61705 11.282 7.28709 11.5093C6.95712 11.7367 6.56732 11.8615 6.16665 11.8681C5.89714 11.8714 5.62964 11.8213 5.37959 11.7207C5.12954 11.6201 4.90188 11.471 4.70975 11.2819C4.51761 11.0929 4.36481 10.8677 4.26016 10.6193C4.1555 10.3709 4.10107 10.1043 4.09999 9.83476Z"
		fill="#A1A5B7" />
</svg>