<svg width="20" height="20" viewBox="0 0 20 20" fill="none" xmlns="http://www.w3.org/2000/svg">
	<path opacity="0.3"
		d="M16.8167 7.7006H15.6583C15.4519 7.18221 15.1712 6.69657 14.825 6.25893L15.3917 5.2756C15.5944 4.92049 15.6486 4.49964 15.5425 4.10474C15.4364 3.70984 15.1785 3.37288 14.825 3.16727L13.4667 2.38393C13.2911 2.28243 13.0972 2.21657 12.8962 2.19012C12.6951 2.16367 12.4908 2.17715 12.2949 2.22979C12.0991 2.28243 11.9155 2.37319 11.7548 2.49688C11.5941 2.62057 11.4594 2.77476 11.3583 2.9506L10.7833 3.9506C10.5239 3.91151 10.2623 3.88924 10 3.88393C9.73792 3.88648 9.47626 3.90597 9.21668 3.94227L8.65835 2.9506C8.45713 2.59487 8.12289 2.3336 7.7291 2.22422C7.33532 2.11483 6.91421 2.16628 6.55835 2.36727L5.19168 3.14227C4.83595 3.34349 4.57468 3.67773 4.4653 4.07151C4.35591 4.4653 4.40736 4.8864 4.60835 5.24227L5.17501 6.2506C4.83378 6.68553 4.55342 7.16494 4.34168 7.6756H3.21668C3.01362 7.67227 2.81193 7.70953 2.62347 7.7852C2.435 7.86086 2.26354 7.97341 2.11916 8.11624C1.97478 8.25907 1.86038 8.4293 1.78268 8.61694C1.70498 8.80458 1.66554 9.00585 1.66668 9.20893V10.7756C1.66558 10.9781 1.70437 11.1787 1.78084 11.3662C1.8573 11.5537 1.96994 11.7242 2.11232 11.8682C2.25471 12.0121 2.42405 12.1266 2.61067 12.2051C2.7973 12.2836 2.99756 12.3245 3.20001 12.3256H4.34168C4.5505 12.8377 4.83109 13.3175 5.17501 13.7506L4.60001 14.7339C4.49871 14.9089 4.433 15.1021 4.40665 15.3025C4.38031 15.503 4.39387 15.7066 4.44653 15.9018C4.4992 16.097 4.58994 16.2798 4.71353 16.4398C4.83712 16.5997 4.99112 16.7337 5.16668 16.8339L6.52501 17.6256C6.70059 17.7271 6.89446 17.793 7.09553 17.8194C7.2966 17.8459 7.50091 17.8324 7.69676 17.7797C7.89261 17.7271 8.07615 17.6363 8.23687 17.5126C8.39758 17.389 8.53232 17.2348 8.63335 17.0589L9.20835 16.0589C9.47027 16.0993 9.735 16.1188 10 16.1173C10.2787 16.1151 10.557 16.0956 10.8333 16.0589L11.4 17.0423C11.5002 17.2178 11.6342 17.3718 11.7942 17.4954C11.9541 17.619 12.137 17.7097 12.3321 17.7624C12.5273 17.8151 12.731 17.8286 12.9314 17.8023C13.1318 17.776 13.3251 17.7102 13.5 17.6089L14.8583 16.8256C15.0346 16.7261 15.1894 16.5926 15.3138 16.433C15.4382 16.2733 15.5298 16.0906 15.5833 15.8954C15.6367 15.7001 15.651 15.4963 15.6253 15.2955C15.5995 15.0947 15.5343 14.901 15.4333 14.7256L14.8583 13.7256C15.1925 13.3009 15.4724 12.8362 15.6917 12.3423H16.8167C17.2142 12.3318 17.5927 12.1698 17.8747 11.8894C18.1566 11.609 18.3207 11.2314 18.3333 10.8339V9.25893C18.3378 8.85147 18.1808 8.45882 17.8966 8.16681C17.6124 7.8748 17.2241 7.70718 16.8167 7.7006Z"
		fill="#7F8194" />
	<path
		d="M9.99169 12.7096C11.4875 12.7096 12.7 11.4971 12.7 10.0013C12.7 8.50553 11.4875 7.29297 9.99169 7.29297C8.49592 7.29297 7.28336 8.50553 7.28336 10.0013C7.28336 11.4971 8.49592 12.7096 9.99169 12.7096Z"
		fill="#7F8194" />
</svg>