<svg width="24" height="24" viewBox="0 0 24 24" fill="none" xmlns="http://www.w3.org/2000/svg">
	<path opacity="0.3"
		d="M6.37002 18.6513L19.68 8.82135V7.50135C19.6784 6.84866 19.489 6.21023 19.1343 5.6623C18.7797 5.11437 18.2748 4.6801 17.68 4.41135L13.1 2.31135C12.6558 2.10875 12.1733 2.00391 11.685 2.00391C11.1968 2.00391 10.7142 2.10875 10.27 2.31135L5.68002 4.41135C5.08447 4.67908 4.57892 5.11311 4.22412 5.66127C3.86933 6.20943 3.68039 6.84839 3.68002 7.50135V14.8513C3.67798 15.3544 3.78824 15.8515 4.00276 16.3065C4.21728 16.7615 4.53065 17.1629 4.92002 17.4813L6.37002 18.6513Z"
		fill="black" />
	<path
		d="M7.52002 19.5816L9.52002 21.2316C10.1254 21.7306 10.8855 22.0035 11.67 22.0035C12.4546 22.0035 13.2147 21.7306 13.82 21.2316L18.41 17.4816C18.8007 17.1636 19.1156 16.7626 19.3318 16.3076C19.548 15.8527 19.6601 15.3553 19.66 14.8516V10.6016L7.52002 19.5816Z"
		fill="black" />
</svg>