<svg width="20" height="20" viewBox="0 0 20 20" fill="none" xmlns="http://www.w3.org/2000/svg">
	<path opacity="0.3"
		d="M13.6083 2.44141H6.39999C3.79504 2.44141 1.68332 4.55313 1.68332 7.15807V12.8331C1.68332 15.438 3.79504 17.5497 6.39999 17.5497H13.6083C16.2133 17.5497 18.325 15.438 18.325 12.8331V7.15807C18.325 4.55313 16.2133 2.44141 13.6083 2.44141Z"
		fill="#7F8194" />
	<path
		d="M6.83332 9.95729C8.02073 9.95729 8.98332 8.99097 8.98332 7.79896C8.98332 6.60694 8.02073 5.64062 6.83332 5.64062C5.64591 5.64062 4.68332 6.60694 4.68332 7.79896C4.68332 8.99097 5.64591 9.95729 6.83332 9.95729Z"
		fill="#7F8194" />
	<path
		d="M6.83333 14.7312C8.59143 14.7312 10.0167 13.791 10.0167 12.6312C10.0167 11.4715 8.59143 10.5312 6.83333 10.5312C5.07522 10.5312 3.64999 11.4715 3.64999 12.6312C3.64999 13.791 5.07522 14.7312 6.83333 14.7312Z"
		fill="#7F8194" />
	<path
		d="M15.4333 12.418H12.5C12.3342 12.418 12.1753 12.3521 12.0581 12.2349C11.9408 12.1177 11.875 11.9587 11.875 11.793C11.875 11.6272 11.9408 11.4682 12.0581 11.351C12.1753 11.2338 12.3342 11.168 12.5 11.168H15.4083C15.5741 11.168 15.7331 11.2338 15.8503 11.351C15.9675 11.4682 16.0333 11.6272 16.0333 11.793C16.0333 11.9587 15.9675 12.1177 15.8503 12.2349C15.7331 12.3521 15.5741 12.418 15.4083 12.418H15.4333Z"
		fill="#7F8194" />
	<path
		d="M15.75 9.21484H11.35C11.1842 9.21484 11.0252 9.149 10.908 9.03179C10.7908 8.91458 10.725 8.7556 10.725 8.58984C10.725 8.42408 10.7908 8.26511 10.908 8.1479C11.0252 8.03069 11.1842 7.96484 11.35 7.96484H15.75C15.9157 7.96484 16.0747 8.03069 16.1919 8.1479C16.3091 8.26511 16.375 8.42408 16.375 8.58984C16.375 8.7556 16.3091 8.91458 16.1919 9.03179C16.0747 9.149 15.9157 9.21484 15.75 9.21484Z"
		fill="#7F8194" />
</svg>