<svg width="24" height="24" viewBox="0 0 24 24" fill="none" xmlns="http://www.w3.org/2000/svg">
	<g opacity="0.3">
		<path
			d="M12 11.92C14.7394 11.92 16.96 9.69933 16.96 6.96C16.96 4.22067 14.7394 2 12 2C9.26071 2 7.04004 4.22067 7.04004 6.96C7.04004 9.69933 9.26071 11.92 12 11.92Z"
			fill="black" />
	</g>
	<path
		d="M19.7 21.9994C19.8635 22.0086 20.027 21.9826 20.1795 21.923C20.332 21.8634 20.4699 21.7716 20.5838 21.654C20.6976 21.5363 20.7848 21.3955 20.8394 21.2411C20.894 21.0868 20.9146 20.9225 20.9 20.7594C20.26 16.9994 16.52 14.1094 12 14.1094C7.48002 14.1094 3.74002 16.9994 3.10002 20.7594C3.08539 20.9225 3.10607 21.0868 3.16064 21.2411C3.21521 21.3955 3.30239 21.5363 3.41625 21.654C3.53012 21.7716 3.66799 21.8634 3.82049 21.923C3.97299 21.9826 4.13654 22.0086 4.30002 21.9994H19.7Z"
		fill="black" />
</svg>